<svg xmlns="http://www.w3.org/2000/svg" width="780" height="440" viewBox="0 0 780 440"><defs><style>.d{fill:#fff;}.e{fill:#2079c3;}.f{fill:#0b968f;}.g{fill:#db3e3e;}.h{fill:#c9faf0;}.i{fill:#fcdbeb;}.j{fill:#ff95c1;}.k{fill:#162020;}.l{fill:#026661;}.m{fill:#08c4b2;}.n{fill:#ff7f6e;}.o{fill:#24e0c5;}.p{fill:#ffbc00;}</style></defs><g id="a"><rect class="l" x=".0018" y=".0014" width="780" height="440"></rect></g><g id="b"><path class="f" d="m582.0695,338.9623V95.9755c0-5.5916-4.5259-10.1244-10.1089-10.1244H208.0394c-5.583,0-10.1089,4.5328-10.1089,10.1244v242.9868h-30.3268v5.0622c0,5.5916,4.5259,10.1244,10.1089,10.1244h424.5747c5.583,0,10.1089-4.5329,10.1089-10.1244v-5.0622h-30.3268Z"></path><path class="k" d="m602.2871,354.7744H177.7129c-5.9189,0-10.7344-4.8223-10.7344-10.75v-5.6875h30.3271V95.9756c0-5.9272,4.8154-10.7495,10.7334-10.7495h363.9219c5.918,0,10.7334,4.8223,10.7334,10.7495v242.3613h30.3271v5.6875c0,5.9277-4.8154,10.75-10.7344,10.75Zm-434.0586-15.1875v4.4375c0,5.2383,4.2549,9.5,9.4844,9.5h424.5742c5.2295,0,9.4844-4.2617,9.4844-9.5v-4.4375h-30.3271V95.9756c0-5.2378-4.2539-9.4995-9.4834-9.4995H208.0391c-5.2295,0-9.4834,4.2617-9.4834,9.4995v243.6113h-30.3271Z"></path><rect class="m" x="207.1348" y="100.3" width="366.0596" height="238.5476"></rect><path class="k" d="m573.8193,339.4727H206.5098V99.6748h367.3096v239.7979Zm-366.0596-1.25h364.8096V100.9248H207.7598v237.2979Z"></path><rect class="h" x="387.1692" y="215.6084" width="122.5669" height="181.6098" rx="11.7166" ry="11.7166"></rect><path class="k" d="m498.0195,397.8428h-99.1338c-6.8057,0-12.3418-5.5361-12.3418-12.3408v-158.1768c0-6.8052,5.5361-12.3418,12.3418-12.3418h99.1338c6.8057,0,12.3418,5.5366,12.3418,12.3418v158.1768c0,6.8047-5.5361,12.3408-12.3418,12.3408Zm-99.1338-181.6094c-6.1162,0-11.0918,4.9756-11.0918,11.0918v158.1768c0,6.1152,4.9756,11.0908,11.0918,11.0908h99.1338c6.1162,0,11.0918-4.9756,11.0918-11.0908v-158.1768c0-6.1162-4.9756-11.0918-11.0918-11.0918h-99.1338Z"></path><path class="p" d="m435.4806,173.1542v55.1905h25.9442v-55.1905h-25.9442Zm18.448,21.5141c-3.0242,3.0242-7.9274,3.0242-10.9516,0-3.0242-3.0242-3.0242-7.9274,0-10.9516,3.0242-3.0242,7.9274-3.0242,10.9516,0,3.0242,3.0242,3.0242,7.9274,0,10.9516Z"></path><path d="m462.0498,228.9697h-27.1943v-56.4404h27.1943v56.4404Zm-25.9443-1.25h24.6943v-53.9404h-24.6943v53.9404Zm12.3477-30.1621c-2.1436,0-4.2871-.8159-5.9189-2.4473-3.2617-3.2632-3.2617-8.5728,0-11.8354,3.2637-3.2627,8.5732-3.2637,11.8369,0,1.5801,1.5806,2.4512,3.6821,2.4512,5.9175s-.8711,4.3374-2.4512,5.918h0c-1.6318,1.6313-3.7754,2.4473-5.918,2.4473Zm-.001-15.481c-1.8223,0-3.6455.6943-5.0332,2.082-2.7754,2.7754-2.7754,7.292,0,10.0679,2.7764,2.7764,7.293,2.7744,10.0674,0h0c1.3447-1.3447,2.0859-3.1323,2.0859-5.0342s-.7412-3.689-2.0859-5.0337c-1.3877-1.3877-3.2109-2.082-5.0342-2.082Z"></path><circle class="o" cx="448.4527" cy="286.1795" r="30.9471"></circle><path class="k" d="m448.4531,317.752c-17.4092,0-31.5723-14.1631-31.5723-31.5723s14.1631-31.5723,31.5723-31.5723,31.5713,14.1631,31.5713,31.5723-14.1631,31.5723-31.5713,31.5723Zm0-61.8945c-16.7197,0-30.3223,13.6025-30.3223,30.3223s13.6025,30.3223,30.3223,30.3223,30.3213-13.6025,30.3213-30.3223-13.6025-30.3223-30.3213-30.3223Z"></path><ellipse class="d" cx="448.4709" cy="279.0307" rx="10.7975" ry="10.7543"></ellipse><path class="k" d="m448.4707,290.4102c-6.2979,0-11.4219-5.1055-11.4219-11.3799s5.124-11.3789,11.4219-11.3789,11.4229,5.1045,11.4229,11.3789-5.124,11.3799-11.4229,11.3799Zm0-21.5088c-5.6084,0-10.1719,4.5439-10.1719,10.1289s4.5635,10.1299,10.1719,10.1299,10.1729-4.5439,10.1729-10.1299-4.5635-10.1289-10.1729-10.1289Z"></path><path class="d" d="m448.4527,317.1266c7.4329,0,14.252-2.6225,19.5874-6.9899-1.0968-8.6825-4.4559-14.123-10.4561-16.3801-3.4048-1.2808-6.3893-1.488-8.8809-1.5066v-.0019c-.0558,0-.1133.0007-.1695.001-.0562-.0002-.1137-.0009-.1695-.001v.0019c-2.4916.0187-5.476.2258-8.8809,1.5066-6.0268,2.2671-9.3893,7.7457-10.4707,16.4957,5.3137,4.2965,12.0745,6.8742,19.4402,6.8742Z"></path><path class="k" d="m448.4531,317.752c-7.1963,0-14.2402-2.4912-19.833-7.0137l-.2705-.2188.043-.3438c1.126-9.1143,4.6816-14.6768,10.8711-17.0039,3.5322-1.3301,6.5801-1.5283,9.0957-1.5469l.1348-.001.125.624-.0059-.624c2.6123.0195,5.6621.2197,9.1904,1.5479,6.1631,2.3184,9.7139,7.8418,10.8564,16.8867l.043.3428-.2676.2188c-5.6172,4.5986-12.7139,7.1318-19.9824,7.1318Zm-18.7764-7.7695c5.3271,4.207,11.9805,6.5195,18.7764,6.5195,6.8652,0,13.5703-2.3525,18.9219-6.6309-1.123-8.3379-4.4004-13.4189-10.0107-15.5293-3.3506-1.2607-6.2607-1.4492-8.666-1.4668l-.2549-.002c-2.4824.0195-5.3945.21-8.7402,1.4688-5.6357,2.1191-8.918,7.2373-10.0264,15.6406Z"></path><rect class="k" x="408.1719" y="338.6016" width="80.5615" height="1.25"></rect><rect class="k" x="408.1719" y="350.5771" width="80.5615" height="1.25"></rect><rect class="k" x="408.1719" y="362.5527" width="80.5615" height="1.25"></rect><rect class="d" x="95.5532" y="125.4933" width="241.4409" height="38.0506"></rect><path class="k" d="m337.6191,164.1689H94.9277v-39.3008h242.6914v39.3008Zm-241.4414-1.25h240.1914v-36.8008H96.1777v36.8008Z"></path><rect class="n" x="95.5532" y="162.726" width="241.4409" height="131.1871"></rect><path class="k" d="m337.6191,294.5381H94.9277v-132.437h242.6914v132.437Zm-241.4414-1.25h240.1914v-129.937H96.1777v129.937Z"></path><circle class="e" cx="112.882" cy="142.2405" r="10.2345"></circle><path class="k" d="m112.8818,153.1001c-5.9883,0-10.8594-4.8716-10.8594-10.8594s4.8711-10.8599,10.8594-10.8599,10.8594,4.8716,10.8594,10.8599-4.8711,10.8594-10.8594,10.8594Zm0-20.4692c-5.2988,0-9.6094,4.311-9.6094,9.6099s4.3105,9.6094,9.6094,9.6094,9.6094-4.3105,9.6094-9.6094-4.3105-9.6099-9.6094-9.6099Z"></path><rect class="g" x="129.6293" y="139.4493" width="49.3114" height="4.652"></rect><path class="k" d="m179.5654,144.7266h-50.5615v-5.9023h50.5615v5.9023Zm-49.3115-1.25h48.0615v-3.4023h-48.0615v3.4023Z"></path><circle class="g" cx="112.882" cy="142.2405" r="10.2345"></circle><path class="k" d="m112.8818,153.1001c-5.9883,0-10.8594-4.8716-10.8594-10.8594s4.8711-10.8599,10.8594-10.8599,10.8594,4.8716,10.8594,10.8599-4.8711,10.8594-10.8594,10.8594Zm0-20.4692c-5.2988,0-9.6094,4.311-9.6094,9.6099s4.3105,9.6094,9.6094,9.6094,9.6094-4.3105,9.6094-9.6094-4.3105-9.6099-9.6094-9.6099Z"></path><polygon class="d" points="196.4356 249.4907 236.1117 226.5833 196.4356 203.6746 196.4356 249.4907"></polygon><path class="k" d="m195.8105,250.5732v-47.981l41.5508,23.9907-41.5508,23.9902Zm1.25-45.8159v43.6499l37.8008-21.8242-37.8008-21.8257Z"></path><rect class="j" x="546.8303" y="39.1821" width="131.6165" height="219.0747"></rect><path class="k" d="m678.4473,258.8818h-131.6172c-.3447,0-.625-.2803-.625-.625V39.1821c0-.3452.2803-.625.625-.625h131.6172c.3447,0,.625.2798.625.625v219.0747c0,.3447-.2803.625-.625.625Zm-130.9922-1.25h130.3672V39.8071h-130.3672v217.8247Z"></path><rect class="k" x="558.002" y="216.6631" width="50.5986" height="1.25"></rect><rect class="k" x="558.002" y="227.835" width="81.8994" height="1.25"></rect><rect class="k" x="558.002" y="239.0059" width="81.8994" height="1.25"></rect><circle class="d" cx="657.3357" cy="128.5373" r="12.486"></circle><path class="k" d="m657.3359,141.6484c-7.2295,0-13.1113-5.8818-13.1113-13.1113s5.8818-13.1108,13.1113-13.1108,13.1104,5.8813,13.1104,13.1108-5.8809,13.1113-13.1104,13.1113Zm0-24.9722c-6.54,0-11.8613,5.3208-11.8613,11.8608s5.3213,11.8613,11.8613,11.8613,11.8604-5.3208,11.8604-11.8613-5.3203-11.8608-11.8604-11.8608Z"></path><path class="d" d="m657.7578,177.6377c-3.5763,0-6.4756,2.4679-6.4756,5.5123s2.8992,5.5123,6.4756,5.5123v.9916c0,.3665.4003.592.7114.3981,1.1591-.7225,3.4058-2.2057,4.2003-3.3128.0018-.0024.0027-.0048.0045-.0072.97-.9638,1.5595-2.2133,1.5595-3.582,0-3.0443-2.8992-5.5123-6.4756-5.5123Z"></path><path class="k" d="m658.2236,190.7471c-.1816,0-.3633-.0454-.5283-.1362-.3467-.1929-.5625-.5596-.5625-.957v-.3901c-3.624-.2744-6.4756-2.9116-6.4756-6.1138,0-3.3843,3.1855-6.1372,7.1006-6.1372s7.1006,2.7529,7.1006,6.1372c0,1.4688-.6113,2.8896-1.7227,4.0039-.9238,1.21-3.0986,2.6572-4.3369,3.4282-.1748.1099-.375.165-.5752.165Zm-.4658-12.4844c-3.2256,0-5.8506,2.1924-5.8506,4.8872s2.625,4.8872,5.8506,4.8872h.625v1.3306c1.9023-1.2031,3.2725-2.2871,3.7783-2.9927l.0723-.0864c.8867-.8813,1.375-1.9961,1.375-3.1387,0-2.6948-2.625-4.8872-5.8506-4.8872Z"></path><path class="d" d="m663.147,160.1736c.3289-.4514.6101-.9284.8222-1.438.9847-2.3673-.9174-4.9856-3.4752-4.9857-1.0681,0-2.0306.4434-2.7181,1.1526-.6869-.7095-1.6493-1.1526-2.7171-1.1526-2.0857,0-3.7765,1.6836-3.7765,3.7609.0005,2.9613,3.7982,5.2672,5.7109,7.101.4151.3979,1.0954.3992,1.512.0028,1.4405-1.3707,3.3876-2.7196,4.6418-4.441Z"></path><path class="k" d="m657.751,165.5347c-.4316,0-.8623-.1572-1.1904-.4717-.4102-.3936-.9229-.8193-1.4648-1.27-1.9775-1.6431-4.4375-3.688-4.4385-6.2822,0-2.4185,1.9746-4.3857,4.4014-4.3857,1,0,1.9453.3291,2.7168.937.7734-.6079,1.7188-.937,2.7188-.937,1.46,0,2.8223.7363,3.6445,1.9692.792,1.1865.9404,2.6011.4072,3.8813-.2207.5312-.5137,1.0439-.8945,1.5664-.8965,1.23-2.0889,2.2451-3.2422,3.2266-.5166.4395-1.0205.8682-1.4736,1.2988-.3262.3115-.7559.4673-1.1846.4673Zm-2.6924-11.1597c-1.7373,0-3.1514,1.4067-3.1514,3.1357.001,2.0073,2.1182,3.7676,3.9873,5.3208.5596.4653,1.0889.9048,1.5312,1.3291.1729.1655.4746.166.6475.0015.4697-.4463.9912-.8906,1.5254-1.3457,1.0986-.9341,2.2334-1.8999,3.043-3.0107h0c.3223-.4419.5674-.8706.75-1.3101.3701-.8882.2627-1.875-.293-2.708-.5898-.8843-1.5635-1.4126-2.6045-1.4126-.8623,0-1.668.3418-2.2705.9624l-.4482.4634-.4492-.4639c-.6006-.6201-1.4053-.9619-2.2676-.9619Z"></path><path class="d" d="m665.364,205.2995l-5.3031-4.7832c-.3112-.2807-.8077-.0599-.8077.3592v2.2376s-6.9998-.6336-7.0777,7.3608c-.0022.2292.2816.3456.4328.1733.8228-.9376,2.8987-2.6841,6.6449-2.1624v1.6452c0,.4114.481.635.7955.3698l5.3031-4.4713c.2243-.1891.23-.5326.0122-.729Z"></path><path class="k" d="m652.4297,211.355c-.1055,0-.2119-.019-.3154-.0591-.3467-.1333-.5684-.459-.5635-.8296.0264-2.7163.8193-4.7993,2.3564-6.1899,1.6396-1.4834,3.6777-1.7603,4.7207-1.7959v-1.605c0-.4443.252-.8325.6582-1.0132.4102-.1802.8643-.1074,1.1934.1899l5.3037,4.7832c.2383.2153.3711.522.3652.8428-.0059.3198-.1494.6221-.3945.8281l-5.3018,4.4717c-.334.2822-.7891.3418-1.1826.1572-.3955-.1836-.6416-.5688-.6416-1.0054v-1.0859c-3.04-.252-4.7764,1.1333-5.5498,2.0151-.1689.1929-.4043.2959-.6484.2959Zm.3711-.877v.002-.002Zm5.1318-2.7124c.4424,0,.9111.0312,1.4062.1001l.5391.0752v1.8857l4.9473-4.1719-4.9473-4.4619v2.6011l-.6797-.0581c-.0234-.0015-2.6162-.2031-4.4619,1.4756-1.0879.9897-1.7227,2.4443-1.8906,4.333.9619-.813,2.625-1.7788,5.0869-1.7788Zm7.0117-2.0034s.001.0005.001.001l-.001-.001Z"></path><polygon class="i" points="599.6984 133.6044 599.6984 163.8345 625.5787 148.7194 599.6984 133.6044"></polygon><path class="k" d="m599.6982,164.4595c-.1074,0-.2148-.0278-.3115-.083-.1934-.1113-.3135-.3184-.3135-.542v-30.23c0-.2236.1201-.4307.3135-.542.1953-.1118.4336-.1104.627.0024l25.8809,15.1147c.1914.1118.3096.3174.3096.5396s-.1182.4277-.3096.5396l-25.8809,15.1152c-.0977.0571-.2061.0854-.3154.0854Zm.625-29.7661v28.0522l24.0166-14.0264-24.0166-14.0259Z"></path></g></svg>